<?xml version="1.0" encoding="utf-8"?>
<!-- Generator: Adobe Illustrator 16.0.0, SVG Export Plug-In . SVG Version: 6.00 Build 0)  -->
<!DOCTYPE svg PUBLIC "-//W3C//DTD SVG 1.1//EN" "http://www.w3.org/Graphics/SVG/1.1/DTD/svg11.dtd">
<svg version="1.1" id="Layer_1" xmlns="http://www.w3.org/2000/svg" xmlns:xlink="http://www.w3.org/1999/xlink" x="0px" y="0px"
	 width="350px" height="50px" viewBox="0 0 350 50" style="enable-background:new 0 0 350 50;" xml:space="preserve">
<style type="text/css">
<![CDATA[
	.st0{fill:#E87024;}
	.st1{fill:#E87325;}
	.st2{fill:#E96F24;}
	.st3{fill:#E9A422;}
	.st4{fill:#EB5124;}
	.st5{fill:#EB8E23;}
	.st6{fill:#EC5224;}
	.st7{fill:#ED6723;}
	.st8{fill:#EE6723;}
	.st9{fill:#EF7B22;}
	.st10{fill-rule:evenodd;clip-rule:evenodd;fill:#E87325;}
	.st11{fill:#F07B22;}
	.st12{fill:#231F20;}
	.st13{fill:#253873;}
	.st14{fill:#F4B11A;}
	.st15{fill:#F5B21A;}
	.st16{fill:#273674;}
	.st17{fill:#F6851F;}
	.st18{fill:#283474;}
	.st19{fill:#29367A;}
	.st20{fill:#F9A11B;}
	.st21{fill:url(#SVGID_7_);}
	.st22{fill:url(#SVGID_8_);}
	.st23{fill:url(#SVGID_9_);}
	.st24{fill:#2A81C3;}
	.st25{fill:#2B57A6;}
	.st26{fill:#2B82C5;}
	.st27{fill:#FAA21B;}
	.st28{fill:#2E80BC;}
	.st29{fill:url(#Path_150575_3_);}
	.st30{fill:url(#Path_150575_4_);}
	.st31{fill:url(#Path_150575_5_);}
	.st32{fill:#2F61AC;}
	.st33{fill:#FFC61E;}
	.st34{fill:#FFFFFF;}
	.st35{fill-rule:evenodd;clip-rule:evenodd;fill:#263974;}
	.st36{fill-rule:evenodd;clip-rule:evenodd;fill:#29367A;}
	.st37{fill:#304DA0;}
	.st38{fill:#333333;}
	.st39{fill:#3473BA;}
	.st40{fill:#363894;}
	.st41{fill:#363C91;}
	.st42{fill:#373C92;}
	.st43{fill:#6D6F71;}
	.st44{fill:#6E6F71;}
	.st45{fill-rule:evenodd;clip-rule:evenodd;fill:#FFFFFF;}
	.st46{fill:#3B60AD;}
	.st47{fill:url(#SVGID_10_);}
	.st48{fill:url(#SVGID_11_);}
	.st49{fill:url(#SVGID_12_);}
	.st50{fill:url(#SVGID_13_);}
	.st51{fill:url(#SVGID_14_);}
	.st52{fill:url(#SVGID_15_);}
	.st53{fill:url(#SVGID_16_);}
	.st54{fill:url(#SVGID_17_);}
	.st55{fill:url(#SVGID_18_);}
	.st56{fill:url(#SVGID_19_);}
	.st57{fill:url(#SVGID_20_);}
	.st58{fill:url(#SVGID_21_);}
	.st59{fill:url(#SVGID_22_);}
	.st60{fill:url(#SVGID_23_);}
	.st61{fill:url(#SVGID_24_);}
	.st62{fill:url(#SVGID_26_);}
	.st63{fill:url(#SVGID_27_);}
	.st64{opacity:0.5;fill:url(#SVGID_25_);}
	.st65{fill:#3F50A2;}
	.st66{fill-rule:evenodd;clip-rule:evenodd;fill:url(#SVGID_28_);}
	.st67{fill:url(#Union_1_3_);}
	.st68{fill:url(#Union_1_4_);}
	.st69{fill:url(#Union_1_5_);}
	.st70{fill-rule:evenodd;clip-rule:evenodd;fill:#6D6F71;}
	.st71{fill:url(#Union_2_3_);}
	.st72{fill:url(#Union_2_4_);}
	.st73{fill:url(#Union_2_5_);}
	.st74{fill:#406FB6;}
]]>
</style>
<g>
	<g>
		<path class="st12" d="M68.6,11.7l7.1,20l7-20h7.5v27.6h-5.7v-7.5l0.6-13l-7.4,20.5h-3.9l-7.4-20.5l0.6,13v7.5h-5.7V11.7H68.6z"/>
		<path class="st12" d="M111.7,27.3h-10.9v7.4h12.8v4.6H95.1V11.7h18.4v4.6h-12.8v6.6h10.9V27.3z"/>
		<path class="st12" d="M116.9,39.3V11.7h8.5c2.4,0,4.6,0.5,6.5,1.6c1.9,1.1,3.4,2.6,4.5,4.7c1.1,2,1.6,4.3,1.6,6.9v1.3
			c0,2.6-0.5,4.8-1.6,6.8c-1.1,2-2.5,3.5-4.5,4.6c-1.9,1.1-4.1,1.7-6.5,1.7H116.9z M122.6,16.3v18.4h2.7c2.2,0,3.9-0.7,5.1-2.2
			c1.2-1.5,1.8-3.5,1.8-6.2v-1.5c0-2.8-0.6-4.9-1.7-6.4c-1.2-1.4-2.9-2.2-5.1-2.2H122.6z"/>
		<path class="st12" d="M148.1,39.3h-5.7V11.7h5.7V39.3z"/>
		<path class="st12" d="M162,28.2l-3,3.2v7.9h-5.7V11.7h5.7v12.5l2.5-3.4l7-9.1h7L165.8,24l10.1,15.3h-6.8L162,28.2z"/>
		<path class="st12" d="M193.6,33.6h-10l-1.9,5.7h-6L186,11.7h5.3l10.3,27.6h-6L193.6,33.6z M185.2,29h6.9l-3.5-10.3L185.2,29z"/>
		<path class="st12" d="M205.1,39.3V11.7h8.1c3,0,5.2,0.6,6.7,1.8c1.5,1.2,2.3,3,2.3,5.4c0,1.4-0.4,2.7-1.2,3.7
			c-0.8,1.1-1.8,1.8-3.2,2.3c1.6,0.4,2.9,1.1,3.9,2.4c1,1.2,1.5,2.6,1.5,4.2c0,2.4-0.8,4.3-2.4,5.7c-1.6,1.4-3.8,2.1-6.6,2.1H205.1z
			 M207.5,24.1h6.4c1.9,0,3.4-0.5,4.5-1.4c1.1-0.9,1.6-2.2,1.6-3.8c0-1.8-0.6-3.1-1.7-3.9c-1.1-0.8-2.8-1.3-5-1.3h-5.8V24.1z
			 M207.5,26v11.3h7c2,0,3.6-0.5,4.7-1.5c1.2-1,1.7-2.4,1.7-4.2c0-1.7-0.6-3.1-1.7-4c-1.1-1-2.7-1.5-4.6-1.5H207.5z"/>
		<path class="st12" d="M243.8,31.5h-12.5l-2.8,7.7H226l10.4-27.6h2.2l10.4,27.6h-2.4L243.8,31.5z M232,29.6H243l-5.5-15L232,29.6z"
			/>
		<path class="st12" d="M254.2,37.3h17v2h-19.8v-1.8l16.4-23.8h-15.9v-2h18.7v1.6L254.2,37.3z"/>
		<path class="st12" d="M291.4,31.5h-12.5l-2.8,7.7h-2.4l10.4-27.6h2.2l10.4,27.6h-2.4L291.4,31.5z M279.6,29.6h11.1l-5.5-15
			L279.6,29.6z"/>
		<path class="st12" d="M315.7,31.5h-12.5l-2.8,7.7h-2.4l10.4-27.6h2.2l10.4,27.6h-2.4L315.7,31.5z M303.9,29.6h11.1l-5.5-15
			L303.9,29.6z"/>
		<path class="st12" d="M335.3,27.8h-8v11.5h-2.3V11.7h9c2.9,0,5.2,0.7,6.9,2.1c1.7,1.4,2.5,3.4,2.5,6c0,1.8-0.5,3.3-1.5,4.7
			c-1,1.4-2.4,2.3-4.2,2.8l6.9,11.7v0.2H342L335.3,27.8z M327.3,25.8h7.1c2,0,3.5-0.6,4.7-1.7c1.2-1.1,1.8-2.6,1.8-4.3
			c0-1.9-0.6-3.5-1.9-4.5c-1.2-1.1-3-1.6-5.2-1.6h-6.6V25.8z"/>
	</g>
	<g>
		<path class="st13" d="M25.9,25.9H22c0,0.3,0.1,0.6,0.1,0.9c0.1,0.6,0.4,1.2,0.7,1.7c0.5,0.8,1.1,1.5,1.9,2l2-3.4
			C26.3,26.9,26,26.4,25.9,25.9"/>
		<path class="st1" d="M41,36c0.5,0.5,0.8,0.9,1.3,1.5c0.8,1.4,1,3,0.6,4.7c-0.9,3.3-4.3,5.2-7.5,4.3c-1.7-0.5-2.9-1.5-3.7-2.9
			c-0.3-0.5-0.6-1.1-0.7-1.7c-0.2-0.9-0.2-2,0.1-2.9c0.4-1.5,1.3-2.7,2.5-3.5l1.9,3.4c-0.5,0.4-0.8,1-0.8,1.7c0,1.2,1,2.2,2.3,2.2
			s2.2-1,2.2-2.2c0-1.2-1-2.3-2.2-2.3c-0.3,0-0.6,0-0.8,0.1L34.2,35c1.3-0.6,2.8-0.8,4.3-0.4C39.4,34.8,40.3,35.4,41,36 M33.4,15.5
			l2-3.4c-0.5-0.4-0.8-1-0.8-1.7c0-1.2,1-2.2,2.2-2.2c1.2,0,2.2,1,2.2,2.2c0,1.2-1,2.2-2.2,2.2c-0.3,0-0.5,0-0.8-0.1l-2,3.4
			c1.3,0.6,2.8,0.8,4.3,0.4c1-0.3,1.9-0.8,2.5-1.4c0.5-0.4,0.8-0.9,1.2-1.4c0.8-1.4,1.1-3,0.6-4.7c-0.4-1.7-1.5-2.9-2.9-3.7
			c-1.4-0.8-3-1.1-4.7-0.6c-1.7,0.4-2.9,1.5-3.7,2.9c-0.3,0.6-0.6,1.1-0.7,1.7c-0.2,0.9-0.2,1.9,0.1,2.9
			C31.3,13.5,32.2,14.7,33.4,15.5"/>
		<path class="st13" d="M26.6,23.8l-1.9-3.4c-0.8,0.6-1.4,1.2-2,2c-0.3,0.6-0.6,1.1-0.7,1.7C22,24.5,22,24.7,22,25l3.9,0
			C26,24.5,26.3,24.1,26.6,23.8"/>
		<path class="st13" d="M29.6,27.2c0.4-0.3,0.6-0.8,0.8-1.3h3.9c0,0.4-0.1,0.8-0.2,1.2c-0.4,1.5-1.3,2.7-2.5,3.5L29.6,27.2
			 M32.3,20.9c-0.2-0.2-0.5-0.4-0.7-0.6l-2,3.4c0.4,0.3,0.6,0.8,0.8,1.3h3.9c-0.1-0.9-0.3-1.9-0.8-2.6
			C33.1,21.9,32.8,21.4,32.3,20.9 M49.8,21.1c-1.2-1.2-2.8-1.8-4.3-1.8c-0.6,0-1.2,0.1-1.9,0.3c-0.9,0.3-1.8,0.8-2.5,1.5
			c-1.1,1.1-1.7,2.5-1.8,3.9h3.9c0.2-1.1,1.1-1.8,2.2-1.8c1.2,0,2.2,1,2.2,2.2c0,1.2-1,2.2-2.2,2.2c-1.1,0-2-0.8-2.2-1.8h-3.9
			c0.1,1.4,0.7,2.8,1.8,3.9c0.7,0.7,1.6,1.2,2.5,1.5c0.6,0.2,1.2,0.3,1.9,0.3c1.6,0,3.1-0.6,4.3-1.8c1.2-1.2,1.8-2.8,1.8-4.3
			C51.7,23.9,51.1,22.3,49.8,21.1 M15.3,15c0.7,0.6,1.6,1.1,2.5,1.4c3.3,0.9,5.2,4.2,4.3,7.6C22.1,24.3,22,24.6,22,25l3.9,0
			c0.1-0.5,0.4-0.9,0.8-1.3l-6.5-11.5c-0.2,0.1-0.5,0.1-0.7,0.1c-1.2,0-2.2-1-2.2-2.2c0-1.2,1-2.2,2.2-2.2c1.2,0,2.3,1,2.3,2.2
			c0,0.7-0.3,1.3-0.8,1.7l6.5,11.5c0.2-0.1,0.5-0.1,0.7-0.1c0.3,0,0.5,0,0.8,0.1l2-3.4c-0.3-0.2-0.7-0.3-1.1-0.4
			c-1.7-0.4-2.9-1.5-3.7-2.9c-0.8-1.4-1.1-3-0.6-4.7c0.3-1,0.3-2,0.1-2.9c-0.1-0.6-0.4-1.2-0.7-1.7C24,6,22.7,4.9,21.1,4.5
			c-1.7-0.4-3.3-0.2-4.7,0.6C15,5.9,14,7.2,13.5,8.8c-0.4,1.7-0.2,3.3,0.6,4.7C14.4,14,14.8,14.5,15.3,15 M30.9,30.9
			c-0.3,0.2-0.7,0.3-1.1,0.4c-1.7,0.5-2.9,1.5-3.7,2.9c-0.8,1.4-1,3-0.6,4.7c0.3,1,0.3,2,0.1,2.9c-0.1,0.6-0.4,1.2-0.7,1.7
			c-0.8,1.4-2.1,2.5-3.7,2.9c-3.3,0.9-6.7-1.1-7.5-4.3c-0.5-1.7-0.2-3.3,0.6-4.7c0.3-0.5,0.7-1,1.2-1.4c0.7-0.6,1.6-1.1,2.5-1.4
			c3.3-0.9,5.2-4.3,4.3-7.5c-0.1-0.4-0.3-1.3-0.3-1.2h3.9c0.1,0.5,0.4,1,0.8,1.3l-6.6,11.2c-0.2,0-0.4-0.1-0.6-0.1
			c-1.2,0-2.2,1-2.2,2.3c0,1.2,1,2.2,2.2,2.2c1.2,0,2.3-1,2.3-2.2c0-0.7-0.3-1.4-0.8-1.8l6.5-11.1c0.3,0.1,0.5,0.1,0.8,0.1
			c0.3,0,0.5,0,0.8-0.1L30.9,30.9z"/>
		<linearGradient id="SVGID_7_" gradientUnits="userSpaceOnUse" x1="4.5635" y1="25.4307" x2="26.6494" y2="25.4307">
			<stop  offset="0" style="stop-color:#E97425"/>
			<stop  offset="0.4896" style="stop-color:#6A4C5A"/>
			<stop  offset="0.766" style="stop-color:#253873"/>
			<stop  offset="1" style="stop-color:#253A73"/>
		</linearGradient>
		<path id="SVGID_5_" class="st21" d="M6.4,21.1c-2.4,2.4-2.4,6.3,0,8.7c1.2,1.2,2.8,1.8,4.3,1.8c0.6,0,1.2-0.1,1.9-0.3
			c0.9-0.3,1.8-0.8,2.5-1.5c1.2-1.2,2.8-1.8,4.3-1.8c1.6,0,3.1,0.6,4.3,1.8c0.3,0.3,0.6,0.5,0.9,0.8l2-3.4c-0.4-0.3-0.7-0.8-0.8-1.3
			H13c-0.2,1.1-1.1,1.8-2.2,1.8c-1.2,0-2.2-1-2.2-2.2c0-1.2,1-2.2,2.2-2.2c1.1,0,2,0.8,2.2,1.8l12.9,0c0.1-0.5,0.4-0.9,0.8-1.3
			l-1.9-3.4c-0.3,0.2-0.7,0.4-1,0.7c-2.4,2.4-6.3,2.4-8.7,0c-0.7-0.7-1.6-1.2-2.5-1.5c-0.6-0.2-1.2-0.3-1.9-0.3
			C9.2,19.3,7.6,20,6.4,21.1"/>
	</g>
</g>
</svg>
